HIERARCHY
ROOT Hips
{
  OFFSET 279.157 85.6768 304.565
  CHANNELS 6 Xposition Yposition Zposition Zrotation Xrotation Yrotation
  JOINT LeftUpLeg
  {
    OFFSET 8.64259 1.95398 -2.38835
    CHANNELS 3 Zrotation Xrotation Yrotation
    JOINT LeftLeg
    {
      OFFSET 43.7702 0 0
      CHANNELS 3 Zrotation Xrotation Yrotation
      JOINT LeftFoot
      {
        OFFSET 40.6238 0 0
        CHANNELS 3 Zrotation Xrotation Yrotation
        JOINT LeftToeBase
        {
          OFFSET 12.7242 0 0
          CHANNELS 3 Zrotation Xrotation Yrotation
          End Site
          {
            OFFSET 0 0 0
          }
        }
      }
    }
  }
  JOINT RightUpLeg
  {
    OFFSET -8.2249 1.95398 -2.59336
    CHANNELS 3 Zrotation Xrotation Yrotation
    JOINT RightLeg
    {
      OFFSET 43.5653 0 0
      CHANNELS 3 Zrotation Xrotation Yrotation
      JOINT RightFoot
      {
        OFFSET 40.6238 0 0
        CHANNELS 3 Zrotation Xrotation Yrotation
        JOINT RightToeBase
        {
          OFFSET 12.7242 0 0
          CHANNELS 3 Zrotation Xrotation Yrotation
          End Site
          {
            OFFSET 0 0 0
          }
        }
      }
    }
  }
  JOINT Spine
  {
    OFFSET 0.165834 0.87714 6.61349
    CHANNELS 3 Zrotation Xrotation Yrotation
    JOINT Spine1
    {
      OFFSET 7.38963 1.71661e-005 0
      CHANNELS 3 Zrotation Xrotation Yrotation
      JOINT Spine2
      {
        OFFSET 11.9445 1.14441e-005 0
        CHANNELS 3 Zrotation Xrotation Yrotation
        JOINT Spine3
        {
          OFFSET 14.7254 4.19617e-005 0
          CHANNELS 3 Zrotation Xrotation Yrotation
          JOINT Spine4
          {
            OFFSET 10.9679 0 0
            CHANNELS 3 Zrotation Xrotation Yrotation
            JOINT RightShoulder
            {
              OFFSET 2.46616 -1.6653 3.69651
              CHANNELS 3 Zrotation Xrotation Yrotation
              JOINT RightArm
              {
                OFFSET 13.0012 0 0
                CHANNELS 3 Zrotation Xrotation Yrotation
                JOINT RightForeArm
                {
                  OFFSET 28.7848 1.52588e-005 0
                  CHANNELS 3 Zrotation Xrotation Yrotation
                  JOINT RightHand
                  {
                    OFFSET 26.5688 1.52588e-005 0
                    CHANNELS 3 Zrotation Xrotation Yrotation
                    End Site
                    {
                      OFFSET 0 0 0
                    }
                  }
                }
              }
            }
            JOINT LeftShoulder
            {
              OFFSET 2.38034 -1.29275 -3.7523
              CHANNELS 3 Zrotation Xrotation Yrotation
              JOINT LeftArm
              {
                OFFSET 16.3182 6.10351e-005 0
                CHANNELS 3 Zrotation Xrotation Yrotation
                JOINT LeftForeArm
                {
                  OFFSET 27.0901 0 0
                  CHANNELS 3 Zrotation Xrotation Yrotation
                  JOINT LeftHand
                  {
                    OFFSET 24.5451 1.52588e-005 0
                    CHANNELS 3 Zrotation Xrotation Yrotation
                    End Site
                    {
                      OFFSET 0 0 0
                    }
                  }
                }
              }
            }
            JOINT Neck
            {
              OFFSET 5.0226 -0.0266342 0
              CHANNELS 3 Zrotation Xrotation Yrotation
              JOINT Head
              {
                OFFSET 6.69364 2.86102e-005 0
                CHANNELS 3 Zrotation Xrotation Yrotation
                End Site
                {
                  OFFSET 0 0 0
                }
              }
            }
          }
        }
      }
    }
  }
}
MOTION
Frames:	13
Frame Time:	0.0416667
44.8794 102.808 -246.734 -113.84 -82.1068 -116.37 -174.504 -3.25363 90.2243 -6.94477 14.0525 0.195273 66.1344 5.52398 2.76132 19.7971 -7.96404 8.91213 174.429 -1.95145 90.2458 -12.6541 -7.60268 -0.110366 69.0793 -4.14856 2.13276 25.0636 1.18258 0.596857 0.512921 7.55759 -90.0039 11.7596 1.01835 -0.115246 0.0890871 1.0123 -0.159962 -22.4492 1.0059 0.196179 -2.43656 1.0059 0.196173 91.6607 -29.8883 -103.49 39.7592 -22.0486 -11.7258 13.5448 -22.8572 -4.95572 -30.0254 0.0291932 -10.2572 -88.6212 -53.5047 81.4415 -21.0734 13.4223 -13.7253 1.10333 25.4249 -10.8246 0.224299 -0.250784 -11.4318 5.20528 0.502679 0.150872 -10.3703 0.5754 -1.46103 
44.4123 102.809 -246.646 -113.206 -82.3288 -115.996 -174.685 -2.76789 90.1074 -7.5838 11.7663 0.365299 66.5679 5.57252 1.07789 21.578 -5.61927 5.46195 174.328 -1.9833 90.285 -12.3302 -8.55361 0.0242518 68.4818 -4.19224 0.488127 25.989 0.739166 1.41641 0.326506 7.50586 -89.9923 11.8628 0.652957 -0.0543938 0.191989 0.649937 -0.0830818 -22.3445 0.63911 0.144367 -2.33185 0.639115 0.144375 89.4586 -29.8006 -107.913 43.6062 -13.305 -4.13653 0.891321 -32.8871 -17.0442 -23.6481 -1.10956 -8.32699 -87.9069 -54.1901 82.5874 -21.1833 12.4441 -10.6807 2.72501 24.5871 -13.3777 0.507686 -0.187842 -8.15443 2.8631 1.7368 1.29172 -8.81493 1.62056 -1.98418 
43.6854 102.823 -246.632 -112.333 -82.1974 -115.395 -174.881 -2.05299 90.2572 -8.91422 10.1973 0.754419 66.6479 4.90317 -1.31937 23.3731 -5.77045 9.41569 174.333 -2.03241 90.4113 -12.2898 -8.36334 0.105091 68.6537 -4.39884 0.709092 25.9738 0.723577 1.55086 0.365662 7.53472 -89.9315 11.8044 0.759426 0.0557383 0.133665 0.761142 0.0222516 -22.4031 0.70756 0.281414 -2.39042 0.707557 0.281408 89.4231 -30.8415 -107.568 42.4218 -13.6905 -4.78728 2.47746 -31.3423 -15.8538 -23.3341 -0.955192 -8.6668 -87.7525 -53.0353 82.6181 -21.9196 12.164 -10.3244 3.08789 24.488 -13.6496 2.66103 -0.212169 -7.44168 2.64994 1.48269 -0.396815 -9.0383 1.56424 -0.519926 
42.9574 102.678 -246.627 -110.722 -82.0371 -114.09 -174.645 -1.92643 90.4748 -8.9968 9.94197 0.57151 66.4955 5.09117 -1.49429 24.3726 -5.07968 9.32748 174.784 -1.59443 90.783 -13.2713 -7.90272 -0.236959 69.6323 -4.65657 0.800412 25.1856 1.0363 1.23365 0.426891 7.57554 -89.8963 11.7227 0.89776 0.112317 0.0520444 0.901833 0.0726925 -22.4852 0.822497 0.37696 -2.47261 0.822494 0.376957 89.3137 -30.8925 -107.761 42.2805 -13.4066 -4.72527 2.0997 -31.4589 -16.0292 -24.125 -1.02997 -8.20331 -87.7674 -52.3899 82.4874 -22.4297 11.4994 -10.2538 3.46702 23.8963 -13.7352 3.95501 -0.222849 -6.74472 2.37432 1.26955 -0.598591 -8.79545 1.3971 -0.756154 
42.2423 102.407 -246.615 -112.996 -82.443 -116.7 -174.85 -1.00256 90.4444 -11.1957 9.69981 0.825748 67.337 6.03727 -1.75894 25.0818 -4.71619 9.66885 174.516 -0.886862 90.762 -15.2002 -8.03074 0.0537376 70.6324 -5.05371 0.157606 25.143 0.927818 1.97961 0.447494 7.62682 -89.7847 11.619 0.991028 0.326272 -0.0515774 1.00443 0.282329 -22.5888 0.847155 0.609049 -2.57611 0.847151 0.609035 89.3926 -32.0318 -107.172 42.114 -13.8103 -5.3723 2.5845 -31.4903 -15.5174 -24.4962 -1.08681 -7.83986 -87.743 -51.5537 82.3805 -22.4705 10.1687 -9.65683 4.38321 23.376 -14.233 2.80827 -0.219369 -7.21723 1.63185 0.767485 -2.44154 -8.07969 1.10158 0.6371 
41.5763 101.96 -246.721 -120.239 -82.6044 -123.823 -175.293 1.55566 91.3685 -17.88 8.95612 1.18442 68.8092 7.43372 -2.05196 26.8354 -3.71686 10.2162 174.187 -0.247843 91.0352 -18.4107 -7.44698 0.55139 72.4106 -5.40488 0.0836035 24.8451 0.913938 2.60562 0.526154 7.7843 -89.8541 11.3048 1.11506 0.179567 -0.365625 1.12189 0.130309 -22.904 1.00953 0.506427 -2.89133 1.00954 0.506422 89.4156 -31.0622 -107.497 42.9117 -14.3789 -4.96505 1.92506 -33.0668 -16.029 -24.6246 -1.45721 -6.17989 -87.566 -53.0496 82.8909 -20.7559 9.71678 -9.57195 4.59434 21.2239 -14.8787 1.74886 -0.225467 -8.17475 0.937514 0.48723 -0.403693 -7.62666 0.598912 -1.14776 
40.9694 101.861 -246.797 -129.645 -83.7123 -133.064 -176.869 8.53768 90.0806 -29.8185 10.1011 2.38129 68.3947 7.09364 -0.381506 21.2801 -6.27191 6.89067 174.422 0.296141 91.6537 -19.9863 -3.69463 0.668307 74.0697 -5.40964 1.18101 23.315 1.04121 4.68211 0.550151 7.88002 -89.9253 11.1141 1.1298 0.0389568 -0.556376 1.13042 -0.0108223 -23.0952 1.06585 0.376742 -3.08251 1.06585 0.376745 88.807 -30.9336 -108.73 42.4112 -14.4433 -4.81719 2.6353 -32.9114 -15.1786 -24.0366 -1.34338 -6.75097 -87.4712 -54.0574 83.1913 -20.1063 8.61083 -8.59758 5.88184 20.4929 -16.8985 0.142556 -0.215663 -9.99579 0.0879387 0.424469 0.967918 -6.73124 0.371379 -2.11661 
40.5078 101.916 -246.647 -132.58 -83.8125 -136.304 -178.183 14.3308 88.8728 -37.9082 9.75053 2.95887 68.5128 6.57547 -0.111992 17.516 -8.49681 6.35484 174.432 -0.381704 91.5858 -19.4608 -3.81841 0.619709 73.9239 -5.59967 0.89148 22.9891 1.15916 4.59003 0.70356 7.99319 -89.9861 10.8887 1.40724 -0.104962 -0.781501 1.40126 -0.166817 -23.3225 1.37372 0.322911 -3.30988 1.37371 0.322901 89.066 -29.5361 -108.798 42.6831 -15.0467 -5.42632 3.39894 -34.6803 -14.4233 -26.4873 -1.42226 -6.95502 -87.4655 -55.7445 83.4629 -19.0194 8.16923 -7.60671 5.73644 18.5078 -17.2037 -0.732175 -0.202022 -12.167 -1.14114 0.0226715 2.68517 -5.92915 -0.200194 -3.61487 
40.17 101.905 -245.973 -132.297 -83.5923 -136.662 -178.93 17.4232 86.8996 -37.3064 10.9035 2.46383 67.6555 5.77822 -0.272874 17.4061 -7.61134 3.84226 174.502 -1.16603 91.2268 -18.988 -3.71319 0.254035 73.915 -5.43074 1.73661 25.9468 0.843165 0.844667 0.788764 8.10399 -89.9078 10.6665 1.61331 0.0363045 -1.00347 1.61336 -0.0347707 -23.546 1.5278 0.519607 -3.53338 1.52781 0.519601 88.1063 -29.4628 -110.726 41.9088 -14.9233 -6.14335 3.83415 -33.8765 -13.3788 -26.721 -1.05341 -8.68533 -86.9223 -56.425 84.3287 -18.5892 8.19891 -4.9963 6.03255 16.7742 -19.19 -0.674259 -0.188613 -10.9809 -2.09111 0.285008 3.59046 -5.9926 0.000883428 -4.39678 
39.6352 101.767 -244.548 -137.008 -83.0509 -140.999 -178.655 18.1697 86.0286 -31.2163 14.5961 1.29796 66.0924 4.12612 -1.81586 18.1661 -8.58491 7.68648 174.868 -4.66678 91.7716 -15.8082 -4.34488 0.179267 73.4825 -5.84089 1.29876 24.1393 1.03882 3.21972 0.900374 8.25017 -89.9808 10.3771 1.80248 -0.120167 -1.29263 1.79544 -0.199417 -23.8375 1.75524 0.427282 -3.82488 1.75524 0.427271 88.5867 -28.2425 -110.312 42.8721 -15.3507 -6.79141 2.95344 -33.7658 -14.7545 -26.3599 -0.901722 -9.50165 -87.247 -57.2412 83.9875 -18.1365 7.74529 -3.13656 5.33715 16.5169 -17.9985 -0.703664 -0.168132 -9.70198 -3.24779 0.318715 5.45535 -5.21877 -0.132907 -5.65658 
39.558 101.427 -242.826 -121.634 -83.0504 -126.929 -179.151 18.4652 83.4091 -19.0285 15.0477 -0.270864 64.2713 3.62855 -1.13555 19.5301 -7.7896 7.9424 173.992 -3.37711 90.3662 -17.5566 -6.05134 0.0588675 75.3798 -6.68051 1.18326 24.4853 0.860212 3.54949 1.14562 8.18501 -89.7354 10.5014 2.40345 0.312549 -1.16739 2.41487 0.2064 -23.7177 2.19835 1.02076 -3.70504 2.19834 1.02076 88.3806 -29.3694 -110.224 42.1394 -15.5181 -7.3617 2.32245 -33.1718 -15.9413 -26.4303 -0.836697 -9.65558 -87.7541 -54.5554 82.8663 -21.6306 5.73189 -1.83539 5.21528 17.3953 -14.4044 -1.12317 -0.156016 -10.1414 -3.81226 -0.1744 3.47074 -4.67819 -0.454017 -3.74786 
39.0937 101.109 -240.15 -116.95 -82.4775 -122.126 -179.545 17.4947 82.3733 -9.15134 12.4377 -1.36852 63.8906 3.78164 -1.45726 18.548 -7.45142 5.31793 174.248 -4.7666 90.4929 -18.1538 -4.58006 -0.376832 77.0029 -7.09738 1.9055 26.2002 0.184803 4.58798 1.25068 8.2018 -89.7315 10.4686 2.61453 0.302048 -1.1997 2.62529 0.186598 -23.7531 2.40281 1.07429 -3.74048 2.40281 1.07429 88.2119 -29.3031 -110.587 41.7598 -15.7233 -8.02213 2.53838 -33.1759 -15.8731 -26.437 -0.838906 -9.64097 -87.2986 -56.3617 83.7921 -20.4525 6.4799 -0.0489599 4.29376 15.5613 -14.0577 -1.47572 -0.129489 -9.37032 -4.0017 0.0991347 4.34697 -4.35376 -0.287169 -3.42123 
38.633 100.446 -236.512 -114.359 -81.9284 -119.155 -179.416 18.6771 81.4106 -7.79841 7.21701 -2.27097 64.7399 3.92077 -1.15082 19.0304 -7.44621 6.12008 173.964 -7.29138 90.3926 -18.0483 -3.72061 -0.321126 78.8528 -7.52499 3.74497 27.4577 -0.154064 4.31529 1.26834 8.16241 -89.8105 10.5495 2.61334 0.142487 -1.11883 2.61707 0.0272534 -23.6731 2.44963 0.921788 -3.66042 2.44962 0.921775 88.2536 -28.5174 -110.856 42.1425 -15.735 -8.0198 2.85805 -33.467 -15.0067 -26.6407 -0.94055 -9.16467 -87.6231 -58.2332 83.6231 -20.6433 5.68383 2.24493 4.18926 13.9335 -13.8398 -1.71776 -0.119728 -9.47789 -4.58301 0.249354 6.09094 -4.0288 -0.294507 -3.68688 
